<svg id="visual" viewBox="0 0 900 600" width="900" height="600" xmlns="http://www.w3.org/2000/svg" xmlns:xlink="http://www.w3.org/1999/xlink" version="1.1"><g transform="translate(432.1269251901677 265.7962404093252)"><path d="M165.6 -196.8C219.2 -189.1 270.3 -146.8 264.6 -101C258.9 -55.1 196.3 -5.8 170 49C143.6 103.9 153.5 164.4 131.2 215.2C108.9 265.9 54.5 307 -1.9 309.5C-58.2 312.1 -116.4 276.2 -157.1 231.4C-197.9 186.7 -221.1 133 -227.4 81.5C-233.6 30 -222.9 -19.5 -218.9 -83.3C-214.9 -147.1 -217.6 -225.2 -182.3 -238.9C-146.9 -252.6 -73.5 -201.8 -8.7 -189.8C56 -177.8 112.1 -204.6 165.6 -196.8" fill="#dbdbdb"></path></g></svg>